<svg xmlns="http://www.w3.org/2000/svg" xmlns:xlink="http://www.w3.org/1999/xlink" width="1080" zoomAndPan="magnify" viewBox="0 0 810 809.999993" height="1080" preserveAspectRatio="xMidYMid meet" version="1.0"><path fill="#5d0045" d="M 347.976562 806.652344 C 343.246094 804.734375 337.957031 796.886719 330.671875 780.972656 C 326.550781 771.976562 321.113281 760.203125 318.589844 754.804688 C 301.027344 717.28125 285.195312 681.425781 275.511719 657.214844 C 268.949219 640.804688 268.785156 640.15625 269.890625 634.859375 C 271.121094 628.972656 271.605469 625.65625 276.632812 588.519531 C 286.824219 513.277344 301.78125 417.082031 309.863281 374.800781 C 319.507812 324.367188 325.914062 293.761719 336.007812 249.953125 C 340.566406 230.152344 345.957031 207.101562 347.988281 198.699219 C 354.179688 173.070312 362.390625 134.777344 368.207031 104.378906 C 371.25 88.488281 374.9375 69.878906 376.410156 63.027344 C 377.886719 56.179688 379.09375 49.835938 379.09375 48.933594 C 379.09375 44.46875 399.816406 21.695312 409.3125 15.710938 C 425.359375 5.597656 451.578125 0.875 471.234375 4.554688 C 487.980469 7.703125 508.796875 18.433594 521.785156 30.617188 C 528.117188 36.558594 536.03125 48.800781 538.308594 56.171875 C 541.203125 65.542969 541.1875 84.664062 538.269531 111.125 C 537.054688 122.109375 535.070312 140.425781 533.859375 151.820312 C 525.316406 232.175781 516.023438 306.265625 505.476562 378.074219 C 501.308594 406.445312 500.070312 414.761719 494.757812 450.050781 C 493.539062 458.144531 491.289062 473.113281 489.761719 483.308594 C 480.203125 546.863281 469.335938 627.625 467.5 648.761719 C 466.722656 657.71875 466.359375 658.769531 461.425781 666.210938 C 454.875 676.09375 429.800781 709.792969 411.316406 733.558594 C 403.617188 743.453125 388.128906 763.867188 376.894531 778.921875 C 355.378906 807.746094 353.976562 809.09375 347.996094 806.675781 Z M 399.984375 720.730469 C 419.160156 695.980469 442.332031 664.875 442.332031 663.890625 C 442.332031 662.542969 436.59375 654.496094 432.640625 650.308594 C 428.175781 645.566406 421.847656 641.949219 418.023438 641.949219 C 414.421875 641.949219 411.199219 645.789062 407.910156 654 C 404.601562 662.257812 402.992188 663.757812 397.433594 663.757812 C 392.460938 663.757812 391.042969 661.960938 387.84375 651.601562 C 384.792969 641.722656 378.808594 635.40625 372.488281 635.40625 C 361.035156 635.40625 352.929688 645.195312 352.910156 659.042969 C 352.898438 667.0625 344.710938 670.929688 339.269531 665.484375 C 337.695312 663.84375 336.570312 661.933594 335.890625 659.761719 C 332.339844 645.003906 318.214844 636.789062 304.378906 641.445312 C 298.210938 643.515625 295.582031 645.515625 293.332031 649.871094 C 291.863281 652.710938 292.152344 653.789062 298.472656 668.957031 C 306.785156 688.90625 322.246094 723.441406 324.335938 726.734375 C 325.796875 729.035156 326.640625 729.1875 337.808594 729.1875 C 352.949219 729.1875 364.335938 731.53125 374.710938 736.785156 C 379.210938 739.0625 383.167969 740.984375 383.511719 741.054688 C 383.855469 741.125 391.257812 731.988281 399.96875 720.738281 Z M 451.050781 643.089844 C 451.050781 642.1875 453.933594 619.421875 460.316406 569.980469 C 462.511719 552.960938 466.394531 525.828125 470.691406 497.472656 C 472.511719 485.476562 474.710938 470.753906 475.578125 464.757812 C 476.449219 458.761719 478.4375 445.515625 479.996094 435.316406 C 494.578125 340.019531 504.46875 265.097656 514.964844 170.4375 L 516.890625 153.074219 L 511.5 148.28125 C 502.136719 139.957031 483.5625 128.210938 482.082031 129.683594 C 481.09375 133.230469 480.382812 136.832031 479.953125 140.488281 C 479.09375 146.121094 477.132812 158.824219 475.585938 168.71875 C 474.042969 178.613281 471.832031 193.089844 470.671875 200.886719 C 468.09375 218.199219 464.992188 238.5625 461.949219 258.128906 C 460.691406 266.226562 458.714844 279.222656 457.558594 287.023438 C 455.171875 303.15625 452.296875 321.441406 445.046875 366.625 C 442.257812 384.015625 439.070312 404.132812 437.957031 411.328125 C 436.847656 418.523438 434.875 431.285156 433.578125 439.679688 C 432.277344 448.078125 430.3125 460.835938 429.207031 468.03125 C 428.101562 475.226562 426.21875 487.25 425.019531 494.746094 C 419.722656 527.824219 415.984375 551.695312 414.515625 561.804688 C 410.839844 587.117188 407.34375 610.371094 405.953125 618.75 C 405.265625 621.878906 404.945312 625.046875 404.996094 628.25 C 405.285156 628.539062 407.054688 627.960938 408.929688 626.96875 C 418.179688 622.054688 432.242188 626.398438 443.226562 637.574219 C 449.4375 643.882812 451.050781 645.019531 451.050781 643.089844 Z M 338.054688 621.503906 C 338.402344 616.253906 338.980469 606.566406 339.328125 599.96875 C 339.941406 588.476562 343.421875 556.195312 346.914062 529.636719 C 347.820312 522.742188 350.058594 505.566406 351.882812 491.476562 C 359.0625 436.027344 367.488281 383.398438 398.726562 198.703125 C 403.980469 167.648438 408.601562 137.5 410.222656 123.738281 C 410.902344 117.960938 410.792969 117.46875 408.792969 117.46875 C 406.515625 117.71875 404.300781 118.246094 402.152344 119.046875 C 397.421875 120.710938 382.332031 128.039062 381.070312 129.277344 C 379.753906 133.070312 378.769531 136.949219 378.109375 140.914062 C 375.335938 154.5 371.058594 173.996094 368.171875 186.164062 C 366.960938 191.261719 364.707031 200.828125 363.175781 207.425781 C 361.644531 214.023438 359.457031 223.335938 358.332031 228.148438 C 342.738281 294.769531 334.539062 333.550781 325.234375 384.621094 C 314.84375 441.671875 307.195312 491.296875 290.71875 608.511719 C 289.554688 616.800781 288.601562 625 288.601562 626.722656 L 288.601562 629.855469 L 294.230469 627.25 C 305.144531 622.191406 322.246094 622.671875 331.753906 628.304688 C 333.34375 629.3125 335.003906 630.195312 336.734375 630.945312 C 337.121094 631 337.722656 626.753906 338.070312 621.507812 Z M 354.753906 623.5 C 364.710938 617.464844 377.425781 617.023438 386.511719 622.375 C 388.578125 623.59375 390.546875 624.308594 390.890625 623.96875 C 391.734375 618.988281 392.21875 613.976562 392.351562 608.929688 C 393.460938 589.902344 396.566406 566.574219 405.324219 511.644531 C 407.835938 495.90625 409.566406 484.792969 416.109375 442.40625 C 420.324219 415.101562 422.859375 399.0625 426.535156 376.4375 C 427.410156 371.039062 429.136719 360.246094 430.367188 352.449219 C 431.601562 344.65625 433.558594 332.386719 434.71875 325.191406 C 435.875 317.996094 439.304688 295.667969 442.335938 275.574219 C 445.367188 255.484375 448.8125 232.914062 449.976562 225.417969 C 451.140625 217.925781 453.351562 203.449219 454.878906 193.25 C 458.292969 170.402344 460.429688 156.667969 463.140625 140.246094 C 466.234375 121.496094 466.183594 121.082031 460.59375 119.578125 C 448.800781 116.402344 436.449219 114.648438 429.667969 115.191406 C 428.574219 115.277344 426.257812 128.058594 424.304688 144.730469 C 423.476562 151.839844 415.085938 203.140625 407.988281 244.5 C 405.214844 260.691406 402.238281 278.359375 401.386719 283.753906 C 400.53125 289.148438 399.082031 297.738281 398.167969 302.835938 C 397.253906 307.933594 394.773438 322.898438 392.648438 336.09375 C 390.527344 349.289062 386.378906 374.800781 383.433594 392.792969 C 374.660156 446.304688 368.957031 486.929688 361.082031 551.992188 C 357.886719 578.371094 353.730469 603.921875 350.671875 615.960938 C 348.515625 624.449219 348.171875 626.691406 349.019531 626.691406 C 351.003906 625.753906 352.914062 624.691406 354.753906 623.5 Z M 354.753906 623.5 " fill-opacity="1" fill-rule="nonzero"/></svg>